<svg width="24" height="24" viewBox="0 0 24 24" fill="none" xmlns="http://www.w3.org/2000/svg">
<path d="M9 10.5C9 10.3011 9.07902 10.1103 9.21967 9.96967C9.36032 9.82902 9.55109 9.75 9.75 9.75H14.25C14.4489 9.75 14.6397 9.82902 14.7803 9.96967C14.921 10.1103 15 10.3011 15 10.5C15 10.6989 14.921 10.8897 14.7803 11.0303C14.6397 11.171 14.4489 11.25 14.25 11.25H9.75C9.55109 11.25 9.36032 11.171 9.21967 11.0303C9.07902 10.8897 9 10.6989 9 10.5Z" fill="#0F7F99"/>
<path d="M9.75 12.75C9.55109 12.75 9.36032 12.829 9.21967 12.9697C9.07902 13.1103 9 13.3011 9 13.5C9 13.6989 9.07902 13.8897 9.21967 14.0303C9.36032 14.171 9.55109 14.25 9.75 14.25H12.75C12.9489 14.25 13.1397 14.171 13.2803 14.0303C13.421 13.8897 13.5 13.6989 13.5 13.5C13.5 13.3011 13.421 13.1103 13.2803 12.9697C13.1397 12.829 12.9489 12.75 12.75 12.75H9.75Z" fill="#0F7F99"/>
<path d="M3.00003 11.9999C3.00041 10.0184 3.65467 8.0925 4.8613 6.52084C6.06794 4.94919 7.7595 3.81966 9.67359 3.30747C11.5877 2.79529 13.6173 2.92908 15.4476 3.68809C17.2779 4.4471 18.8065 5.7889 19.7964 7.50534C20.7863 9.22179 21.1821 11.2169 20.9224 13.1813C20.6627 15.1456 19.762 16.9693 18.36 18.3695C16.958 19.7697 15.1332 20.6682 13.1685 20.9254C11.2039 21.1827 9.20923 20.7844 7.49403 19.7924L3.98703 20.9624C3.85746 21.0056 3.71854 21.0127 3.58526 20.9827C3.45198 20.9528 3.3294 20.8871 3.23075 20.7926C3.1321 20.6981 3.06112 20.5785 3.02549 20.4466C2.98985 20.3148 2.9909 20.1757 3.02853 20.0444L4.09653 16.3079C3.37505 14.9867 2.99795 13.5051 3.00003 11.9999ZM12 4.49985C10.6758 4.49977 9.37516 4.8503 8.23031 5.51581C7.08547 6.18132 6.13723 7.13809 5.48201 8.28885C4.82678 9.43962 4.48792 10.7433 4.49986 12.0675C4.51181 13.3917 4.87414 14.6891 5.55003 15.8279C5.60203 15.9158 5.63551 16.0135 5.64841 16.1149C5.6613 16.2162 5.65335 16.3192 5.62503 16.4174L4.86153 19.0874L7.34853 18.2594C7.45415 18.2241 7.5663 18.2128 7.67682 18.2263C7.78735 18.2398 7.89349 18.2777 7.98753 18.3374C8.97043 18.9594 10.0846 19.3443 11.2418 19.4616C12.3991 19.5789 13.5678 19.4255 14.6555 19.0133C15.7433 18.6012 16.7203 17.9417 17.5092 17.087C18.2982 16.2323 18.8776 15.2058 19.2015 14.0886C19.5255 12.9714 19.5852 11.7942 19.3758 10.65C19.1665 9.50579 18.6938 8.42597 17.9953 7.49587C17.2967 6.56577 16.3914 5.8109 15.3509 5.29093C14.3104 4.77095 13.1632 4.50012 12 4.49985Z" fill="#0F7F99"/>
</svg>
