<svg width="24" height="24" viewBox="0 0 24 24" fill="none">
<path d="M21.2836 8.27572L15.3328 7.41087L12.6726 2.0179C12.6 1.87025 12.4805 1.75072 12.3328 1.67806C11.9625 1.49525 11.5125 1.64759 11.3273 2.0179L8.66717 7.41087L2.71639 8.27572C2.55233 8.29915 2.40233 8.3765 2.28748 8.49369C2.14864 8.63639 2.07214 8.82837 2.07477 9.02746C2.07741 9.22654 2.15897 9.41643 2.30155 9.5554L6.60701 13.7531L5.58983 19.6804C5.56597 19.8183 5.58123 19.9601 5.63387 20.0897C5.68651 20.2194 5.77442 20.3317 5.88764 20.4139C6.00086 20.4962 6.13486 20.545 6.27444 20.555C6.41401 20.5649 6.55358 20.5356 6.67733 20.4702L12 17.6718L17.3226 20.4702C17.468 20.5476 17.6367 20.5734 17.7984 20.5452C18.2062 20.4749 18.4805 20.0882 18.4101 19.6804L17.393 13.7531L21.6984 9.5554C21.8156 9.44056 21.893 9.29056 21.9164 9.1265C21.9797 8.71634 21.6937 8.33665 21.2836 8.27572ZM15.5812 13.1624L16.4273 18.0913L12 15.7663L7.57264 18.0937L8.41873 13.1648L4.83748 9.67259L9.78748 8.95306L12 4.46947L14.2125 8.95306L19.1625 9.67259L15.5812 13.1624Z" fill="#0F7F99"/>
</svg>
