<svg width="38" height="46" viewBox="0 0 38 46" fill="none" xmlns="http://www.w3.org/2000/svg">
<path d="M38 2.33238C38 2.98027 37.4777 3.62816 36.5636 4.40563C33.5601 6.8676 30.8179 10.1071 30.4261 10.4958C24.1581 17.6225 20.6323 26.1746 15.9313 34.0789C13.9725 37.4479 11.7526 40.6873 9.01032 43.7972C7.70448 45.3521 6.13746 46 4.57045 46C2.74227 46 1.43643 44.9634 0.652921 43.0197C0.130584 41.724 0 39.7803 0 37.4479V35.7634C0 30.969 0.783521 25.6563 2.21995 19.9549C3.65637 14.2535 5.22338 11.4028 6.79039 11.4028C7.44331 11.4028 7.83506 11.5324 7.96564 11.7916C8.09623 12.0507 8.22681 12.569 8.22681 13.2169C7.18213 16.5859 6.39863 19.9549 5.61512 23.7127C4.83162 27.3408 4.43987 30.8394 4.43987 34.2084C4.43987 35.1155 4.43986 36.0225 4.57045 36.8C4.70103 37.4479 4.83163 38.0958 5.09279 38.7437C5.09279 38.8732 5.22338 39.0028 5.48455 39.1324C7.31273 39.9099 8.87973 36.9296 10.5773 33.431C16.0619 22.5465 23.6357 11.9211 31.6014 2.72113C33.1684 0.90705 34.6048 0 35.9106 0C36.433 0 36.9553 0.12957 37.3471 0.518302C37.7388 1.03661 38 1.55491 38 2.33238Z" fill="#81C6D6"/>
</svg>
