<svg width="205" height="69" fill="none" xmlns="http://www.w3.org/2000/svg"><path d="M5.591 32.822V48.3h3.54c1.305 0 2.237 0 2.796-.187.746-.186 1.305-.56 1.864-.932.56-.373.932-1.119 1.304-2.238.373-1.119.56-2.424.56-4.29 0-1.864-.187-3.17-.56-4.102-.372-.932-.745-1.678-1.304-2.238-.56-.56-1.305-.932-2.236-1.119-.746-.186-1.864-.186-3.914-.186h-2.05v-.187zm-4.66-3.917h8.574c1.863 0 3.354.187 4.472.373 1.305.373 2.61 1.12 3.541 2.238.932.933 1.677 2.238 2.237 3.73.559 1.492.745 3.357.745 5.594 0 1.865-.186 3.544-.745 5.036-.56 1.678-1.491 2.983-2.423 4.102-.746.746-1.864 1.492-3.355 1.865-1.118.373-2.422.56-4.1.56H1.118V28.905H.932zm35.783 13.987l-3.169-8.579-3.168 8.579h6.337zm8.572 9.138h-5.031l-2.05-5.222h-9.319l-1.863 5.222H21.99l9.132-23.311h5.032l9.131 23.31zm50.132-19.208V48.3h3.541c1.305 0 2.236 0 2.796-.187.745-.186 1.304-.56 1.863-.932.559-.373.932-1.119 1.305-2.238.372-1.119.559-2.424.559-4.29 0-1.864-.187-3.17-.559-4.102-.373-.932-.746-1.678-1.305-2.238-.559-.56-1.304-.932-2.236-1.119-.746-.186-1.864-.186-3.914-.186h-2.05v-.187zm-4.659-3.917h8.573c1.863 0 3.354.187 4.472.373 1.305.373 2.61 1.12 3.541 2.238.932.933 1.678 2.238 2.237 3.73.559 1.492.745 3.357.745 5.594 0 1.865-.186 3.544-.745 5.036-.559 1.678-1.491 2.983-2.423 4.102-.745.746-1.864 1.492-3.355 1.865-1.118.373-2.422.56-4.1.56h-8.759V28.905h-.186zm27.396 11.562c0 2.611.559 4.663 1.863 5.968 1.305 1.305 2.796 2.051 4.659 2.051 1.864 0 3.355-.746 4.659-2.051 1.119-1.306 1.864-3.357 1.864-6.154 0-2.61-.559-4.662-1.677-5.968-1.118-1.305-2.796-2.051-4.659-2.051-1.864 0-3.541.746-4.659 2.051-1.491 1.492-2.05 3.544-2.05 6.154zm-4.846.187c0-2.425.373-4.29 1.118-5.968.559-1.119 1.305-2.237 2.237-3.17.931-.932 1.863-1.678 2.981-2.051a14.224 14.224 0 015.032-.933c3.355 0 6.15 1.12 8.2 3.17 2.05 2.052 3.168 5.036 3.168 8.952 0 3.73-.931 6.713-2.981 8.765-2.05 2.051-4.846 3.17-8.2 3.17-3.541 0-6.15-1.119-8.2-3.17-2.423-2.238-3.355-5.035-3.355-8.765zm32.055 11.376l-8.2-23.125h5.031l5.964 17.157 5.591-17.157h5.032l-8.387 23.125h-5.031zm25.718 0V28.905h4.659v10.257l9.505-10.257h6.336l-8.759 8.952 9.132 14.173h-5.964l-6.523-10.817-3.727 3.917v6.9h-4.659zm-95.791 0v-9.698l-8.573-13.427h5.405l5.59 9.138 5.405-9.138h5.405L79.95 42.332v9.698h-4.659z" fill="#fff"/><path d="M165.491 53.895c-.559-.373-1.118-.933-1.677-1.306l-1.491-1.492c-.746.933-1.305 1.492-1.491 1.865a3.585 3.585 0 00-.745 2.238c0 .56 0 .746.186.932 0 .187.373.187.745.187.746 0 1.491-.187 2.237-.56.932-.373 1.677-1.118 2.236-1.864zm-.932-10.63c0-.56-.559-1.119-1.863-1.678-.373-.187-1.678-.56-4.1-1.12.745 1.306 1.304 2.239 1.677 2.798a28.359 28.359 0 002.05 2.984 7.08 7.08 0 011.118-.933c.746-.746 1.118-1.492 1.118-2.051zm13.046 14.546c0 .56-.373 1.119-.932 1.305a6.948 6.948 0 01-2.236.373c-1.305 0-2.61-.56-4.1-1.492-.373-.186-1.119-.932-2.423-2.051-.559.746-1.491 1.492-2.796 2.238-1.863 1.119-3.541 1.678-5.218 1.678-.745 0-1.491-.186-2.05-.746-.932-.56-1.304-1.492-1.304-2.797 0-1.119.372-2.424.931-3.543.932-1.306 1.864-2.798 2.982-4.103-1.118-1.678-2.236-3.17-3.168-4.476-1.864-2.61-2.795-4.475-2.795-5.035 0-.56.372-1.119.931-1.492a3.152 3.152 0 011.864-.56c1.305 0 3.355.374 5.964 1.12 3.541 1.119 5.218 2.424 5.218 3.916a3.58 3.58 0 01-.746 2.238c0 .186-1.304 1.305-3.54 3.73.559.745 1.118 1.305 1.49 1.678.56.56 1.305 1.305 2.05 1.865.187-.187.746-.933 1.491-2.424.559-1.12 1.305-1.679 1.864-1.679.745 0 1.305.187 1.491.746.186.187.186.746.186 1.492 0 .56-.372 1.305-.932 2.424-.186.187-.559.746-1.304 1.679.932.746 1.677 1.305 2.423 1.678.931.56 1.863.932 2.795.932 1.118-.186 1.864.187 1.864 1.306zM99.704 3.357c0 .932-.745 1.865-2.05 2.984-4.286 3.543-8.2 8.205-8.759 8.764C79.95 25.362 74.918 37.67 68.21 49.045c-2.795 4.85-5.964 9.512-9.877 13.987-1.864 2.238-4.1 3.17-6.337 3.17-2.609 0-4.472-1.491-5.59-4.288-.746-1.865-.932-4.663-.932-8.02V51.47c0-6.9 1.118-14.546 3.168-22.751 2.05-8.206 4.286-12.308 6.523-12.308.931 0 1.49.186 1.677.56.186.372.373 1.118.373 2.05-1.491 4.85-2.61 9.698-3.728 15.106-1.118 5.222-1.677 10.257-1.677 15.105 0 1.306 0 2.611.186 3.73.187.933.373 1.865.746 2.797 0 .187.186.373.559.56 2.609 1.119 4.845-3.17 7.268-8.206C68.395 32.45 79.204 17.158 90.573 3.916 92.809 1.306 94.859 0 96.723 0c.745 0 1.49.186 2.05.746.559.746.931 1.492.931 2.61zM199.782 28.16c.373-1.306.932-2.611-.559-2.611-.932 0-3.541-.187-5.218 1.305-2.237 1.865-2.796 4.662-2.423 6.713.186.933.745 1.679 1.491 2.425.745.56 1.304.746 2.05.746 1.304 0 3.168-.373 4.472-1.679 1.119-1.305 1.119-1.305 2.05-2.797.373-.746 1.119-2.984-.186-3.17-1.118.186-2.05.56-2.05 1.865 0 .559-.373 1.118-1.118 1.864-.746.746-1.491 1.12-2.236 1.12-.187 0-.373-.187-.56-.374-.186-.186-.186-.373-.186-.56 0-.372.186-1.118 1.118-2.237.932-.932 1.491-1.305 2.05-1.305.559-.187 1.118-.746 1.305-1.306z" fill="#fff"/></svg>