<svg width="205" height="69" viewBox="0 0 205 69" fill="none" xmlns="http://www.w3.org/2000/svg">
<path d="M5.59097 32.8215V48.2999H9.13187C10.4364 48.2999 11.3682 48.2998 11.9273 48.1134C12.6728 47.9269 13.2319 47.5539 13.791 47.1809C14.3501 46.808 14.7228 46.062 15.0955 44.9431C15.4683 43.8242 15.6546 42.5188 15.6546 40.6539C15.6546 38.789 15.4683 37.4837 15.0955 36.5512C14.7228 35.6188 14.3501 34.8728 13.791 34.3134C13.2319 33.7539 12.4864 33.3809 11.5546 33.1944C10.8091 33.008 9.69099 33.008 7.64099 33.008H5.59097V32.8215ZM0.931885 28.9053H9.50462C11.3683 28.9053 12.8592 29.0918 13.9773 29.2783C15.2819 29.6512 16.5864 30.3972 17.5182 31.5161C18.4501 32.4485 19.1955 33.7539 19.7546 35.2458C20.3137 36.7377 20.5001 38.6026 20.5001 40.8404C20.5001 42.7053 20.3137 44.3837 19.7546 45.8756C19.1955 47.5539 18.2637 48.8593 17.3319 49.9782C16.5864 50.7242 15.4682 51.4701 13.9773 51.8431C12.8592 52.2161 11.5546 52.4026 9.87734 52.4026H1.11826V28.9053H0.931885Z" fill="white"/>
<path d="M36.7137 42.8917L33.5455 34.3133L30.3773 42.8917H36.7137ZM45.2864 52.0296H40.2546L38.2046 46.808H28.8864L27.0228 52.0296H21.991L31.1228 28.7188H36.1546L45.2864 52.0296Z" fill="white"/>
<path d="M95.4181 32.8215V48.2999H98.9591C100.264 48.2999 101.195 48.2998 101.755 48.1134C102.5 47.9269 103.059 47.5539 103.618 47.1809C104.177 46.808 104.55 46.062 104.923 44.9431C105.295 43.8242 105.482 42.5188 105.482 40.6539C105.482 38.789 105.295 37.4837 104.923 36.5512C104.55 35.6188 104.177 34.8728 103.618 34.3134C103.059 33.7539 102.314 33.3809 101.382 33.1944C100.636 33.008 99.5181 33.008 97.4681 33.008H95.4181V32.8215ZM90.759 28.9053H99.3318C101.195 28.9053 102.686 29.0918 103.804 29.2783C105.109 29.6512 106.414 30.3972 107.345 31.5161C108.277 32.4485 109.023 33.7539 109.582 35.2458C110.141 36.7377 110.327 38.6026 110.327 40.8404C110.327 42.7053 110.141 44.3837 109.582 45.8756C109.023 47.5539 108.091 48.8593 107.159 49.9782C106.414 50.7242 105.295 51.4701 103.804 51.8431C102.686 52.2161 101.382 52.4026 99.7045 52.4026H90.9454V28.9053H90.759Z" fill="white"/>
<path d="M118.155 40.4674C118.155 43.0782 118.714 45.1295 120.018 46.4349C121.323 47.7403 122.814 48.4863 124.677 48.4863C126.541 48.4863 128.032 47.7403 129.336 46.4349C130.455 45.1295 131.2 43.0782 131.2 40.2809C131.2 37.6701 130.641 35.6187 129.523 34.3133C128.405 33.0079 126.727 32.262 124.864 32.262C123 32.262 121.323 33.0079 120.205 34.3133C118.714 35.8052 118.155 37.8566 118.155 40.4674ZM113.309 40.6538C113.309 38.2295 113.682 36.3647 114.427 34.6863C114.986 33.5674 115.732 32.4485 116.664 31.516C117.595 30.5836 118.527 29.8376 119.645 29.4647C121.136 28.9052 122.814 28.5322 124.677 28.5322C128.032 28.5322 130.827 29.6512 132.877 31.7025C134.927 33.7539 136.045 36.7376 136.045 40.6538C136.045 44.3836 135.114 47.3674 133.064 49.4187C131.014 51.4701 128.218 52.589 124.864 52.589C121.323 52.589 118.714 51.4701 116.664 49.4187C114.241 47.1809 113.309 44.3836 113.309 40.6538Z" fill="white"/>
<path d="M145.364 52.0296L137.164 28.9053H142.195L148.159 46.0621L153.75 28.9053H158.782L150.395 52.0296H145.364Z" fill="white"/>
<path d="M171.082 52.0296V28.9053H175.741V39.162L185.246 28.9053H191.582L182.823 37.8566L191.955 52.0296H185.991L179.468 41.2134L175.741 45.1296V52.0296H171.082Z" fill="white"/>
<path d="M75.291 52.0296V42.3323L66.7183 28.9053H72.1228L77.7137 38.0431L83.1183 28.9053H88.5228L79.9501 42.3323V52.0296H75.291Z" fill="white"/>
<path d="M165.491 53.8946C164.932 53.5216 164.373 52.9622 163.814 52.5892C163.441 52.2163 163.068 51.8433 162.323 51.0973C161.577 52.0298 161.018 52.5892 160.832 52.9622C160.273 53.7081 160.087 54.4541 160.087 55.2C160.087 55.7595 160.087 55.946 160.273 56.1325C160.273 56.319 160.646 56.319 161.018 56.319C161.764 56.319 162.509 56.1325 163.255 55.7595C164.187 55.3865 164.932 54.6406 165.491 53.8946ZM164.559 43.2649C164.559 42.7055 164 42.146 162.696 41.5865C162.323 41.4 161.018 41.0271 158.596 40.4676C159.341 41.773 159.9 42.7055 160.273 43.2649C160.832 44.1974 161.577 45.3162 162.323 46.2487C162.509 46.0622 162.882 45.6892 163.441 45.3162C164.187 44.5703 164.559 43.8244 164.559 43.2649ZM177.605 57.8108C177.605 58.3703 177.232 58.9298 176.673 59.1163C176.114 59.3028 175.368 59.4892 174.437 59.4892C173.132 59.4892 171.827 58.9298 170.337 57.9973C169.964 57.8109 169.218 57.0649 167.914 55.946C167.355 56.6919 166.423 57.4379 165.118 58.1838C163.255 59.3028 161.577 59.8622 159.9 59.8622C159.155 59.8622 158.409 59.6757 157.85 59.1163C156.918 58.5568 156.546 57.6244 156.546 56.319C156.546 55.2001 156.918 53.8946 157.477 52.7757C158.409 51.4703 159.341 49.9784 160.459 48.673C159.341 46.9946 158.223 45.5028 157.291 44.1974C155.427 41.5865 154.496 39.7217 154.496 39.1622C154.496 38.6027 154.868 38.0433 155.427 37.6703C155.987 37.2974 156.546 37.1108 157.291 37.1108C158.596 37.1108 160.646 37.4838 163.255 38.2298C166.796 39.3487 168.473 40.6541 168.473 42.146C168.473 42.8919 168.287 43.6379 167.727 44.3838C167.727 44.5703 166.423 45.6892 164.187 48.1135C164.746 48.8595 165.305 49.419 165.677 49.7919C166.237 50.3514 166.982 51.0974 167.727 51.6568C167.914 51.4703 168.473 50.7243 169.218 49.2325C169.777 48.1135 170.523 47.5541 171.082 47.5541C171.827 47.5541 172.387 47.7406 172.573 48.3C172.759 48.4865 172.759 49.046 172.759 49.7919C172.759 50.3514 172.387 51.0973 171.827 52.2162C171.641 52.4027 171.268 52.9622 170.523 53.8946C171.455 54.6406 172.2 55.2 172.946 55.573C173.877 56.1324 174.809 56.5054 175.741 56.5054C176.859 56.3189 177.605 56.6919 177.605 57.8108Z" fill="white"/>
<path d="M99.7045 3.35673C99.7045 4.28917 98.959 5.22161 97.6545 6.34053C93.3681 9.88377 89.4545 14.546 88.8954 15.1054C79.9499 25.3622 74.9181 37.6702 68.209 49.0459C65.4136 53.8946 62.2454 58.5567 58.3318 63.0324C56.4681 65.2702 54.2317 66.2027 51.9954 66.2027C49.3863 66.2027 47.5227 64.7108 46.4045 61.9135C45.659 60.0487 45.4727 57.2513 45.4727 53.8946V51.4703C45.4727 44.5703 46.5909 36.9243 48.6409 28.7189C50.6909 20.5135 52.9272 16.4108 55.1636 16.4108C56.0954 16.4108 56.6545 16.5973 56.8409 16.9703C57.0272 17.3433 57.2136 18.0892 57.2136 19.0216C55.7227 23.8703 54.6045 28.7189 53.4863 34.127C52.3681 39.3486 51.809 44.3838 51.809 49.2324C51.809 50.5378 51.809 51.8432 51.9954 52.9621C52.1817 53.8946 52.3681 54.827 52.7409 55.7594C52.7409 55.9459 52.9272 56.1325 53.3 56.3189C55.909 57.4379 58.1454 53.1486 60.5681 48.1135C68.3954 32.4486 79.2045 17.1568 90.5727 3.91623C92.8091 1.30542 94.859 0 96.7227 0C97.4681 0 98.2136 0.186475 98.7727 0.745934C99.3318 1.49188 99.7045 2.23781 99.7045 3.35673Z" fill="white"/>
<path d="M199.782 28.1593C200.155 26.8539 200.714 25.5485 199.223 25.5485C198.291 25.5485 195.682 25.362 194.005 26.8538C191.768 28.7187 191.209 31.516 191.582 33.5674C191.768 34.4998 192.327 35.2457 193.073 35.9917C193.818 36.5511 194.377 36.7377 195.123 36.7377C196.427 36.7377 198.291 36.3646 199.595 35.0592C200.714 33.7538 200.714 33.7538 201.645 32.2619C202.018 31.516 202.764 29.2782 201.459 29.0917C200.341 29.2782 199.409 29.6512 199.409 30.9566C199.409 31.516 199.036 32.0755 198.291 32.8214C197.545 33.5674 196.8 33.9404 196.055 33.9404C195.868 33.9404 195.682 33.7539 195.495 33.5674C195.309 33.3809 195.309 33.1944 195.309 33.0079C195.309 32.635 195.495 31.889 196.427 30.7701C197.359 29.8376 197.918 29.4646 198.477 29.4646C199.036 29.2782 199.595 28.7187 199.782 28.1593Z" fill="white"/>
</svg>
