<svg width="38" height="46" fill="none" xmlns="http://www.w3.org/2000/svg"><path d="M38 2.332c0 .648-.522 1.296-1.436 2.074-3.004 2.462-5.746 5.701-6.138 6.09-6.268 7.126-9.794 15.679-14.495 23.583-1.958 3.369-4.178 6.608-6.92 9.718C7.703 45.352 6.136 46 4.57 46c-1.829 0-3.135-1.037-3.918-2.98C.13 41.724 0 39.78 0 37.448v-1.685c0-4.794.784-10.107 2.22-15.808 1.436-5.701 3.003-8.552 4.57-8.552.653 0 1.045.13 1.176.389.13.259.26.777.26 1.425-1.044 3.369-1.827 6.738-2.61 10.496-.784 3.628-1.176 7.126-1.176 10.495 0 .907 0 1.815.13 2.592.131.648.262 1.296.523 1.944 0 .13.13.259.392.388 1.828.778 3.395-2.202 5.092-5.701 5.485-10.884 13.059-21.51 21.024-30.71C33.168.907 34.605 0 35.911 0c.522 0 1.044.13 1.436.518.392.519.653 1.037.653 1.814z" fill="#81C6D6"/></svg>